<svg width="23" height="23" viewBox="0 0 23 23" fill="none" xmlns="http://www.w3.org/2000/svg">
<path d="M20.6042 21.9422H2.39583C1.76065 21.9415 1.1517 21.6888 0.702564 21.2397C0.253423 20.7905 0.000760848 20.1816 0 19.5464L0 3.25472C0 1.93414 1.07525 0.858887 2.39583 0.858887H20.6042C21.9247 0.858887 23 1.93414 23 3.25472V19.5464C23 20.867 21.9247 21.9422 20.6042 21.9422ZM2.39583 1.81722C1.60329 1.81722 0.958333 2.46218 0.958333 3.25472V19.5464C0.958333 20.3389 1.60329 20.9839 2.39583 20.9839H20.6042C21.3967 20.9839 22.0417 20.3389 22.0417 19.5464V3.25472C22.0417 2.46218 21.3967 1.81722 20.6042 1.81722H2.39583Z" fill="#3DCB67"/>
<path d="M22.5208 7.56722H0.479167C0.352084 7.56722 0.230206 7.51674 0.140345 7.42688C0.0504835 7.33701 0 7.21514 0 7.08805C0 6.96097 0.0504835 6.83909 0.140345 6.74923C0.230206 6.65937 0.352084 6.60889 0.479167 6.60889H22.5208C22.6479 6.60889 22.7698 6.65937 22.8597 6.74923C22.9495 6.83909 23 6.96097 23 7.08805C23 7.21514 22.9495 7.33701 22.8597 7.42688C22.7698 7.51674 22.6479 7.56722 22.5208 7.56722ZM22.5208 12.3589H0.479167C0.352084 12.3589 0.230206 12.3084 0.140345 12.2185C0.0504835 12.1287 0 12.0068 0 11.8797C0 11.7526 0.0504835 11.6308 0.140345 11.5409C0.230206 11.451 0.352084 11.4006 0.479167 11.4006H22.5208C22.6479 11.4006 22.7698 11.451 22.8597 11.5409C22.9495 11.6308 23 11.7526 23 11.8797C23 12.0068 22.9495 12.1287 22.8597 12.2185C22.7698 12.3084 22.6479 12.3589 22.5208 12.3589ZM22.5208 17.1506H0.479167C0.352084 17.1506 0.230206 17.1001 0.140345 17.0102C0.0504835 16.9203 0 16.7985 0 16.6714C0 16.5443 0.0504835 16.4224 0.140345 16.3326C0.230206 16.2427 0.352084 16.1922 0.479167 16.1922H22.5208C22.6479 16.1922 22.7698 16.2427 22.8597 16.3326C22.9495 16.4224 23 16.5443 23 16.6714C23 16.7985 22.9495 16.9203 22.8597 17.0102C22.7698 17.1001 22.6479 17.1506 22.5208 17.1506Z" fill="#3DCB67"/>
<path d="M6.22917 21.9422C6.10208 21.9422 5.98021 21.8917 5.89034 21.8019C5.80048 21.712 5.75 21.5901 5.75 21.4631V7.08805C5.75 6.96097 5.80048 6.83909 5.89034 6.74923C5.98021 6.65937 6.10208 6.60889 6.22917 6.60889C6.35625 6.60889 6.47813 6.65937 6.56799 6.74923C6.65785 6.83909 6.70833 6.96097 6.70833 7.08805V21.4631C6.70833 21.5901 6.65785 21.712 6.56799 21.8019C6.47813 21.8917 6.35625 21.9422 6.22917 21.9422ZM11.5 21.9422C11.3729 21.9422 11.251 21.8917 11.1612 21.8019C11.0713 21.712 11.0208 21.5901 11.0208 21.4631V7.08805C11.0208 6.96097 11.0713 6.83909 11.1612 6.74923C11.251 6.65937 11.3729 6.60889 11.5 6.60889C11.6271 6.60889 11.749 6.65937 11.8388 6.74923C11.9287 6.83909 11.9792 6.96097 11.9792 7.08805V21.4631C11.9792 21.5901 11.9287 21.712 11.8388 21.8019C11.749 21.8917 11.6271 21.9422 11.5 21.9422ZM16.7708 21.9422C16.6438 21.9422 16.5219 21.8917 16.432 21.8019C16.3421 21.712 16.2917 21.5901 16.2917 21.4631V7.08805C16.2917 6.96097 16.3421 6.83909 16.432 6.74923C16.5219 6.65937 16.6438 6.60889 16.7708 6.60889C16.8979 6.60889 17.0198 6.65937 17.1097 6.74923C17.1995 6.83909 17.25 6.96097 17.25 7.08805V21.4631C17.25 21.5901 17.1995 21.712 17.1097 21.8019C17.0198 21.8917 16.8979 21.9422 16.7708 21.9422Z" fill="#3DCB67"/>
</svg>
