<svg width="20" height="20" viewBox="0 0 20 20" fill="none" xmlns="http://www.w3.org/2000/svg">
<path d="M19.1535 0.449404C18.5741 -0.129992 17.6382 -0.129992 17.0588 0.449404L9.79403 7.69929L2.52929 0.434547C1.94989 -0.144849 1.01394 -0.144849 0.434547 0.434547C-0.144849 1.01394 -0.144849 1.94989 0.434547 2.52929L7.69929 9.79403L0.434547 17.0588C-0.144849 17.6382 -0.144849 18.5741 0.434547 19.1535C1.01394 19.7329 1.94989 19.7329 2.52929 19.1535L9.79403 11.8888L17.0588 19.1535C17.6382 19.7329 18.5741 19.7329 19.1535 19.1535C19.7329 18.5741 19.7329 17.6382 19.1535 17.0588L11.8888 9.79403L19.1535 2.52929C19.7181 1.96475 19.7181 1.01394 19.1535 0.449404Z" fill="white"/>
</svg>
