<svg width="25" height="25" viewBox="0 0 25 25" fill="none" xmlns="http://www.w3.org/2000/svg">
<g clip-path="url(#clip0_126_2897)">
<path d="M0 24.1664H25V24.9998H0V24.1664ZM1.66667 23.3331H5.83333C5.94384 23.3331 6.04982 23.2892 6.12796 23.2111C6.2061 23.1329 6.25 23.0269 6.25 22.9164V15.4164C6.25 15.3059 6.2061 15.1999 6.12796 15.1218C6.04982 15.0437 5.94384 14.9998 5.83333 14.9998H1.66667C1.55616 14.9998 1.45018 15.0437 1.37204 15.1218C1.2939 15.1999 1.25 15.3059 1.25 15.4164V22.9164C1.25 23.0269 1.2939 23.1329 1.37204 23.2111C1.45018 23.2892 1.55616 23.3331 1.66667 23.3331ZM2.08333 15.8331H5.41667V22.4998H2.08333V15.8331ZM13.3333 23.3331H17.5C17.6105 23.3331 17.7165 23.2892 17.7946 23.2111C17.8728 23.1329 17.9167 23.0269 17.9167 22.9164V10.4164C17.9167 10.3059 17.8728 10.1999 17.7946 10.1218C17.7165 10.0437 17.6105 9.99976 17.5 9.99976H13.3333C13.2228 9.99976 13.1168 10.0437 13.0387 10.1218C12.9606 10.1999 12.9167 10.3059 12.9167 10.4164V22.9164C12.9167 23.0269 12.9606 23.1329 13.0387 23.2111C13.1168 23.2892 13.2228 23.3331 13.3333 23.3331ZM13.75 10.8331H17.0833V22.4998H13.75V10.8331ZM7.5 23.3331H11.6667C11.7772 23.3331 11.8832 23.2892 11.9613 23.2111C12.0394 23.1329 12.0833 23.0269 12.0833 22.9164V5.41642C12.0833 5.30592 12.0394 5.19993 11.9613 5.12179C11.8832 5.04365 11.7772 4.99976 11.6667 4.99976H7.5C7.38949 4.99976 7.28351 5.04365 7.20537 5.12179C7.12723 5.19993 7.08333 5.30592 7.08333 5.41642V22.9164C7.08333 23.0269 7.12723 23.1329 7.20537 23.2111C7.28351 23.2892 7.38949 23.3331 7.5 23.3331ZM7.91667 5.83309H11.25V22.4998H7.91667V5.83309ZM19.1667 23.3331H23.3333C23.4438 23.3331 23.5498 23.2892 23.628 23.2111C23.7061 23.1329 23.75 23.0269 23.75 22.9164V0.416423C23.75 0.305916 23.7061 0.199935 23.628 0.121795C23.5498 0.0436545 23.4438 -0.000244141 23.3333 -0.000244141L19.1667 -0.000244141C19.0562 -0.000244141 18.9502 0.0436545 18.872 0.121795C18.7939 0.199935 18.75 0.305916 18.75 0.416423V22.9164C18.75 23.0269 18.7939 23.1329 18.872 23.2111C18.9502 23.2892 19.0562 23.3331 19.1667 23.3331ZM19.5833 0.833089H22.9167V22.4998H19.5833V0.833089Z" fill="white"/>
</g>
<defs>
<clipPath id="clip0_126_2897">
<rect width="25" height="25" fill="white" transform="translate(0 -0.000244141)"/>
</clipPath>
</defs>
</svg>
