<svg width="23" height="22" viewBox="0 0 23 22" fill="none" xmlns="http://www.w3.org/2000/svg">
<path d="M22.2263 10.3919C21.8625 10.3919 21.5715 10.6848 21.5715 11.0509V17.0449C21.5715 18.6753 20.2521 19.998 18.6368 19.998H4.26922C2.6491 19.998 1.33458 18.6704 1.33458 17.0449V10.9533C1.33458 10.5872 1.04354 10.2943 0.67974 10.2943C0.315941 10.2943 0.0249023 10.5872 0.0249023 10.9533V17.0449C0.0249023 19.4025 1.93121 21.316 4.26922 21.316H18.6368C20.9797 21.316 22.8812 19.3977 22.8812 17.0449V11.0509C22.8812 10.6897 22.5901 10.3919 22.2263 10.3919Z" fill="white"/>
<path d="M10.9923 16.0834C11.1184 16.2103 11.2882 16.2787 11.4531 16.2787C11.6181 16.2787 11.7878 16.2152 11.914 16.0834L16.0758 11.8954C16.3329 11.6367 16.3329 11.2218 16.0758 10.9631C15.8187 10.7044 15.4064 10.7044 15.1493 10.9631L12.108 14.0284V0.658956C12.108 0.292869 11.8169 0 11.4531 0C11.0893 0 10.7983 0.292869 10.7983 0.658956V14.0284L7.7521 10.9631C7.49502 10.7044 7.08271 10.7044 6.82563 10.9631C6.56854 11.2218 6.56854 11.6367 6.82563 11.8954L10.9923 16.0834Z" fill="white"/>
</svg>
