<svg width="27" height="20" viewBox="0 0 27 20" fill="none" xmlns="http://www.w3.org/2000/svg">
<path d="M19.6463 9.3965V9.39709L10.227 3.92554C10.1484 3.87989 10.0593 3.85585 9.9686 3.85583C9.87788 3.85582 9.78875 3.87984 9.71018 3.92547C9.6316 3.97111 9.56635 4.03674 9.52097 4.1158C9.47559 4.19485 9.45169 4.28452 9.45166 4.37582V15.3189C9.45169 15.4102 9.4756 15.4998 9.52099 15.5789C9.56637 15.6579 9.63164 15.7236 9.71022 15.7692C9.7888 15.8148 9.87793 15.8388 9.96866 15.8388C10.0594 15.8388 10.1485 15.8147 10.2271 15.7691L19.6463 10.2975C19.7249 10.2519 19.7902 10.1862 19.8356 10.1071C19.881 10.028 19.9049 9.93832 19.9049 9.847C19.9049 9.75567 19.881 9.66596 19.8356 9.58688C19.7902 9.5078 19.7249 9.44214 19.6463 9.3965ZM10.4895 14.4178V5.27678L18.358 9.84725L10.4895 14.4178Z" fill="white"/>
<path d="M22.7012 0H4.71153C2.54543 0.00252405 0.790106 1.76889 0.787598 3.94861V15.7459C0.790106 17.9256 2.54543 19.6919 4.71153 19.6945H22.7012C24.8673 19.692 26.6226 17.9256 26.6251 15.7459V3.94861C26.6226 1.76889 24.8673 0.00252405 22.7012 0ZM25.5913 15.7453C25.5894 17.3507 24.2965 18.6517 22.7012 18.6536H4.71153C3.11615 18.6517 1.82334 17.3507 1.82141 15.7453V3.94861C1.82334 2.3432 3.11615 1.04226 4.71153 1.04032H22.7012C24.2965 1.04226 25.5894 2.3432 25.5913 3.94861V15.7453Z" fill="white"/>
</svg>
