<svg width="18" height="17" viewBox="0 0 18 17" fill="none" xmlns="http://www.w3.org/2000/svg">
<path d="M17.4843 8.18394C17.1978 8.18394 16.9686 8.41458 16.9686 8.70288V13.4234C16.9686 14.7073 15.9295 15.749 14.6575 15.749H3.34253C2.06664 15.749 1.03141 14.7035 1.03141 13.4234V8.626C1.03141 8.3377 0.802207 8.10706 0.515705 8.10706C0.229202 8.10706 0 8.3377 0 8.626V13.4234C0 15.2801 1.50127 16.7869 3.34253 16.7869H14.6575C16.5025 16.7869 18 15.2762 18 13.4234V8.70288C18 8.41842 17.7708 8.18394 17.4843 8.18394Z" fill="white"/>
<path d="M8.63638 12.6662C8.7357 12.7661 8.8694 12.8199 8.99928 12.8199C9.12916 12.8199 9.26287 12.77 9.36219 12.6662L12.6398 9.36797C12.8422 9.16424 12.8422 8.83749 12.6398 8.63376C12.4373 8.43002 12.1126 8.43002 11.9101 8.63376L9.51499 11.0478V0.518948C9.51499 0.230644 9.28579 0 8.99928 0C8.71278 0 8.48358 0.230644 8.48358 0.518948V11.0478L6.0846 8.63376C5.88214 8.43002 5.55743 8.43002 5.35497 8.63376C5.15251 8.83749 5.15251 9.16424 5.35497 9.36797L8.63638 12.6662Z" fill="white"/>
</svg>
